<?xml version="1.0" encoding="UTF-8" standalone="no"?><svg xmlns="http://www.w3.org/2000/svg" xmlns:xlink="http://www.w3.org/1999/xlink" fill="#4f3991" height="81.3" preserveAspectRatio="xMidYMid meet" version="1" viewBox="12.5 23.3 103.0 81.3" width="103" zoomAndPan="magnify"><g id="change1_1"><path d="M51.8,68.3c1.6,1.4,3.5,2.5,5.9,3.3c2.3,0.8,4.9,1.1,7.8,1.1c1.9,0,3.7-0.2,5.3-0.5c1.6-0.3,3.1-0.9,4.4-1.5 c1.3-0.7,2.5-1.5,3.4-2.5c1-1,1.8-2.1,2.4-3.4h-3.8c-1,1.3-2.3,2.3-3.8,3.1c-1.5,0.7-3.4,1.2-5.5,1.5c-2.7,0.3-5.2,0.2-7.4-0.3 c-2.2-0.5-4-1.3-5.6-2.4c-1.5-1.1-2.7-2.5-3.5-4.2c-0.8-1.7-1.2-3.5-1.2-5.5c0-1.5,0.2-3,0.6-4.5c0.4-1.5,0.9-2.8,1.6-4 c0.8-1.4,1.8-2.5,3-3.5c1.2-0.9,2.6-1.6,4.2-2.1c1.6-0.5,3.4-0.7,5.3-0.7c1.9,0,3.6,0.3,5.1,0.8c1.5,0.5,2.7,1.2,3.7,2.1 c1,0.9,1.8,2,2.3,3.2c0.5,1.2,0.8,2.6,0.8,4c0,1.7-0.4,3.3-1.1,4.7c-0.7,1.4-1.6,2.6-2.6,3.4c-1,0.8-1.8,1.2-2.5,1.2 c-0.2,0-0.3-0.1-0.5-0.2c-0.1-0.2-0.2-0.4-0.2-0.6c0-0.3,0.1-0.8,0.2-1.6l2.7-12.7h-4.7l-0.4,2c-1-1.6-2.5-2.4-4.7-2.4 c-1.8,0-3.5,0.6-5,1.7c-1.5,1.1-2.6,2.6-3.4,4.4c-0.8,1.8-1.2,3.6-1.2,5.5c0,1.8,0.4,3.3,1.2,4.5c0.8,1.2,1.8,2.1,3,2.6 c1.2,0.5,2.5,0.6,3.9,0.4c1.3-0.3,2.5-0.9,3.5-1.9c0.2,0.7,0.5,1.2,1.1,1.5c0.5,0.3,1.3,0.5,2.2,0.5c1.6,0,3.2-0.3,4.6-1 c1.4-0.7,2.7-1.7,3.7-2.9c1.1-1.2,1.9-2.6,2.4-4.1c0.6-1.5,0.8-3.1,0.8-4.6c0-2-0.3-3.9-1-5.5c-0.7-1.7-1.7-3.1-3-4.3 c-1.3-1.2-2.9-2.2-4.8-2.8c-1.9-0.7-3.9-1-6.1-1c-2.7,0-5.2,0.5-7.5,1.4c-2.3,0.9-4.2,2.2-5.8,3.8c-1.6,1.6-2.8,3.5-3.6,5.7 c-0.8,2.2-1.3,4.5-1.3,7c0,2.4,0.4,4.6,1.2,6.6C49,65.2,50.2,66.9,51.8,68.3z M66.2,57.2c-0.4,1.3-1.1,2.5-1.9,3.3 c-0.8,0.9-1.8,1.3-2.9,1.3c-1,0-1.7-0.4-2.3-1.1c-0.6-0.8-0.9-1.8-0.9-3.2c0-1.4,0.2-2.7,0.7-4c0.5-1.3,1.1-2.3,1.9-3.1 c0.8-0.8,1.8-1.2,2.8-1.2c0.5,0,1,0.1,1.4,0.3c0.4,0.2,0.8,0.5,1,0.9c0.3,0.4,0.5,0.8,0.7,1.3c0.1,0.5,0.2,1.1,0.2,1.7 C66.9,54.6,66.7,55.9,66.2,57.2z" fill="inherit"/><path d="M106.1,46.6c-0.8-0.4-1.5-0.8-2.2-1.2L64.8,23.6c-0.4-0.3-1-0.3-1.5,0L24.1,45.4c-0.7,0.4-1.4,0.8-2.2,1.2 c-4.9,2.6-9.4,4.9-9.4,10.9v34.8c0,3.4,1.4,6.5,3.6,8.7c2.2,2.2,5.3,3.6,8.7,3.6h78.4c3.4,0,6.5-1.4,8.7-3.6 c2.2-2.2,3.6-5.3,3.6-8.7V57.5C115.5,51.5,111,49.1,106.1,46.6z M23.3,49.2c0.7-0.4,1.4-0.7,2.2-1.2L64,26.7L102.4,48 c0.8,0.4,1.5,0.8,2.2,1.2c3.8,2,7.3,3.8,7.7,7.4L83.7,73.6l0,0L64,85.2L44.3,73.6l0,0L15.6,56.7C16.1,53.1,19.6,51.2,23.3,49.2z M15.6,60.2l25,14.7l-25,14.7V60.2z M109.7,98.8c-1.7,1.7-4,2.7-6.5,2.7H24.8c-2.5,0-4.9-1-6.5-2.7c-1.5-1.5-2.5-3.5-2.7-5.7 l28-16.5l19.7,11.6c0.5,0.3,1.1,0.3,1.6,0l19.7-11.6l28,16.5C112.2,95.3,111.2,97.3,109.7,98.8z M112.4,89.6l-25-14.7l25-14.7V89.6 z" fill="inherit"/></g></svg>